<svg xmlns="http://www.w3.org/2000/svg" width="17.694" height="17.694" viewBox="0 0 17.694 17.694">
  <path id="Icon_awesome-phone-alt" data-name="Icon awesome-phone-alt" d="M17.19,12.5l-3.871-1.659a.829.829,0,0,0-.968.238l-1.714,2.094A12.81,12.81,0,0,1,4.513,7.054L6.608,5.34a.827.827,0,0,0,.238-.968L5.187.5a.835.835,0,0,0-.95-.48L.643.851A.829.829,0,0,0,0,1.659,16.034,16.034,0,0,0,16.036,17.695a.829.829,0,0,0,.809-.643l.829-3.594A.839.839,0,0,0,17.19,12.5Z" transform="translate(0 0)" fill="#969696"/>
</svg>
